<svg width="957" height="957" viewBox="0 0 957 957" fill="none" xmlns="http://www.w3.org/2000/svg">
<rect x="589.84" y="336.294" width="6.5102" height="120.439" transform="rotate(135 589.84 336.294)" fill="#EEEEEE"/>
<rect x="449.437" y="195.889" width="6.5102" height="120.439" transform="rotate(135 449.437 195.889)" fill="#EEEEEE"/>
<rect x="585.237" y="110.726" width="6.5102" height="120.439" transform="rotate(45 585.237 110.726)" fill="#EEEEEE"/>
<rect x="444.833" y="251.13" width="6.5102" height="120.439" transform="rotate(45 444.833 251.13)" fill="#EEEEEE"/>
<rect x="594.79" y="587.317" width="6.5102" height="120.439" transform="rotate(135 594.79 587.317)" fill="#EEEEEE"/>
<rect x="454.387" y="446.912" width="6.5102" height="120.439" transform="rotate(135 454.387 446.912)" fill="#EEEEEE"/>
<rect x="590.187" y="361.749" width="6.5102" height="120.439" transform="rotate(45 590.187 361.749)" fill="#EEEEEE"/>
<rect x="449.783" y="502.153" width="6.5102" height="120.439" transform="rotate(45 449.783 502.153)" fill="#EEEEEE"/>
<rect x="352.797" y="587.944" width="6.5102" height="120.439" transform="rotate(135 352.797 587.944)" fill="#EEEEEE"/>
<rect x="212.393" y="447.54" width="6.5102" height="120.439" transform="rotate(135 212.393 447.54)" fill="#EEEEEE"/>
<rect x="348.193" y="362.377" width="6.5102" height="120.439" transform="rotate(45 348.193 362.377)" fill="#EEEEEE"/>
<rect x="207.789" y="502.781" width="6.5102" height="120.439" transform="rotate(45 207.789 502.781)" fill="#EEEEEE"/>
<rect x="597.619" y="840.461" width="6.5102" height="120.439" transform="rotate(135 597.619 840.461)" fill="#EEEEEE"/>
<rect x="457.215" y="700.056" width="6.5102" height="120.439" transform="rotate(135 457.215 700.056)" fill="#EEEEEE"/>
<rect x="593.015" y="614.894" width="6.5102" height="120.439" transform="rotate(45 593.015 614.894)" fill="#EEEEEE"/>
<rect x="452.611" y="755.297" width="6.5102" height="120.439" transform="rotate(45 452.611 755.297)" fill="#EEEEEE"/>
</svg>
