<svg width="681" height="670" viewBox="0 0 681 670" fill="none" xmlns="http://www.w3.org/2000/svg">
<rect x="319" y="156.245" width="6.5102" height="120.439" transform="rotate(90 319 156.245)" fill="#EEEEEE"/>
<rect x="120.439" y="156.244" width="6.5102" height="120.439" transform="rotate(90 120.439 156.244)" fill="#EEEEEE"/>
<rect x="156.245" width="6.5102" height="120.439" fill="#EEEEEE"/>
<rect x="156.245" y="198.561" width="6.5102" height="120.439" fill="#EEEEEE"/>
<rect x="500" y="330.245" width="6.5102" height="120.439" transform="rotate(90 500 330.245)" fill="#EEEEEE"/>
<rect x="301.439" y="330.244" width="6.5102" height="120.439" transform="rotate(90 301.439 330.244)" fill="#EEEEEE"/>
<rect x="337.245" y="174" width="6.5102" height="120.439" fill="#EEEEEE"/>
<rect x="337.245" y="372.561" width="6.5102" height="120.439" fill="#EEEEEE"/>
<rect x="681" y="507.245" width="6.5102" height="120.439" transform="rotate(90 681 507.245)" fill="#EEEEEE"/>
<rect x="482.439" y="507.244" width="6.5102" height="120.439" transform="rotate(90 482.439 507.244)" fill="#EEEEEE"/>
<rect x="518.245" y="351" width="6.5102" height="120.439" fill="#EEEEEE"/>
<rect x="518.245" y="549.561" width="6.5102" height="120.439" fill="#EEEEEE"/>
</svg>
