<svg width="915" height="956" viewBox="0 0 915 956" fill="none" xmlns="http://www.w3.org/2000/svg">
<ellipse cx="219.5" cy="707.5" rx="186.5" ry="167.5" stroke="#EEEEEE" stroke-width="2" stroke-linecap="round" stroke-linejoin="round"/>
<ellipse cx="213" cy="723.5" rx="187" ry="167.5" stroke="#EEEEEE" stroke-width="2" stroke-linecap="round" stroke-linejoin="round"/>
<ellipse cx="206.5" cy="739.5" rx="186.5" ry="167.5" stroke="#EEEEEE" stroke-width="2" stroke-linecap="round" stroke-linejoin="round"/>
<ellipse cx="200" cy="755.5" rx="187" ry="167.5" stroke="#EEEEEE" stroke-width="2" stroke-linecap="round" stroke-linejoin="round"/>
<ellipse cx="193.5" cy="771.5" rx="186.5" ry="167.5" stroke="#EEEEEE" stroke-width="2" stroke-linecap="round" stroke-linejoin="round"/>
<ellipse cx="187.5" cy="787.5" rx="186.5" ry="167.5" stroke="#EEEEEE" stroke-width="2" stroke-linecap="round" stroke-linejoin="round"/>
<ellipse cx="266.5" cy="599.5" rx="186.5" ry="167.5" stroke="#EEEEEE" stroke-width="2" stroke-linecap="round" stroke-linejoin="round"/>
<ellipse cx="260" cy="615.5" rx="187" ry="167.5" stroke="#EEEEEE" stroke-width="2" stroke-linecap="round" stroke-linejoin="round"/>
<ellipse cx="253.5" cy="631.5" rx="186.5" ry="167.5" stroke="#EEEEEE" stroke-width="2" stroke-linecap="round" stroke-linejoin="round"/>
<ellipse cx="247" cy="647.5" rx="187" ry="167.5" stroke="#EEEEEE" stroke-width="2" stroke-linecap="round" stroke-linejoin="round"/>
<ellipse cx="240.5" cy="663.5" rx="186.5" ry="167.5" stroke="#EEEEEE" stroke-width="2" stroke-linecap="round" stroke-linejoin="round"/>
<ellipse cx="234.5" cy="679.5" rx="186.5" ry="167.5" stroke="#EEEEEE" stroke-width="2" stroke-linecap="round" stroke-linejoin="round"/>
<ellipse cx="597.368" cy="316.219" rx="186.5" ry="167.5" transform="rotate(-114.999 597.368 316.219)" stroke="#EEEEEE" stroke-width="2" stroke-linecap="round" stroke-linejoin="round"/>
<ellipse cx="614.616" cy="315.349" rx="187" ry="167.5" transform="rotate(-114.999 614.616 315.349)" stroke="#EEEEEE" stroke-width="2" stroke-linecap="round" stroke-linejoin="round"/>
<ellipse cx="631.864" cy="314.478" rx="186.5" ry="167.5" transform="rotate(-114.999 631.864 314.478)" stroke="#EEEEEE" stroke-width="2" stroke-linecap="round" stroke-linejoin="round"/>
<ellipse cx="649.112" cy="313.607" rx="187" ry="167.5" transform="rotate(-114.999 649.112 313.607)" stroke="#EEEEEE" stroke-width="2" stroke-linecap="round" stroke-linejoin="round"/>
<ellipse cx="666.36" cy="312.737" rx="186.5" ry="167.5" transform="rotate(-114.999 666.36 312.737)" stroke="#EEEEEE" stroke-width="2" stroke-linecap="round" stroke-linejoin="round"/>
<ellipse cx="683.396" cy="311.413" rx="186.5" ry="167.5" transform="rotate(-114.999 683.396 311.413)" stroke="#EEEEEE" stroke-width="2" stroke-linecap="round" stroke-linejoin="round"/>
<ellipse cx="479.624" cy="319.264" rx="186.5" ry="167.5" transform="rotate(-114.999 479.624 319.264)" stroke="#EEEEEE" stroke-width="2" stroke-linecap="round" stroke-linejoin="round"/>
<ellipse cx="496.872" cy="318.394" rx="187" ry="167.5" transform="rotate(-114.999 496.872 318.394)" stroke="#EEEEEE" stroke-width="2" stroke-linecap="round" stroke-linejoin="round"/>
<ellipse cx="514.12" cy="317.523" rx="186.5" ry="167.5" transform="rotate(-114.999 514.12 317.523)" stroke="#EEEEEE" stroke-width="2" stroke-linecap="round" stroke-linejoin="round"/>
<ellipse cx="531.368" cy="316.652" rx="187" ry="167.5" transform="rotate(-114.999 531.368 316.652)" stroke="#EEEEEE" stroke-width="2" stroke-linecap="round" stroke-linejoin="round"/>
<ellipse cx="548.615" cy="315.782" rx="186.5" ry="167.5" transform="rotate(-114.999 548.615 315.782)" stroke="#EEEEEE" stroke-width="2" stroke-linecap="round" stroke-linejoin="round"/>
<ellipse cx="565.652" cy="314.458" rx="186.5" ry="167.5" transform="rotate(-114.999 565.652 314.458)" stroke="#EEEEEE" stroke-width="2" stroke-linecap="round" stroke-linejoin="round"/>
<circle r="8.625" transform="matrix(-1 0 0 1 479.625 542.625)" fill="#EEEEEE"/>
<circle r="8.625" transform="matrix(-1 0 0 1 274.625 400.625)" fill="#EEEEEE"/>
</svg>
