<svg width="926" height="598" viewBox="0 0 926 598" fill="none" xmlns="http://www.w3.org/2000/svg">
<path d="M1 597C48.3333 507.667 199 317.8 423 273C647 228.2 808.333 73 861 1" stroke="#EEEEEE" stroke-width="2"/>
<path d="M27 597C74.3333 507.667 225 317.8 449 273C673 228.2 834.333 73 887 1" stroke="#EEEEEE" stroke-width="2"/>
<path d="M18 597C65.3333 507.667 216 317.8 440 273C664 228.2 825.333 73 878 1" stroke="#EEEEEE" stroke-width="2"/>
<path d="M8 597C55.3333 507.667 206 317.8 430 273C654 228.2 815.333 73 868 1" stroke="#EEEEEE" stroke-width="2"/>
<path d="M39 597C86.3333 507.667 237 317.8 461 273C685 228.2 846.333 73 899 1" stroke="#EEEEEE" stroke-width="2"/>
<path d="M65 597C112.333 507.667 263 317.8 487 273C711 228.2 872.333 73 925 1" stroke="#EEEEEE" stroke-width="2"/>
<path d="M56 597C103.333 507.667 254 317.8 478 273C702 228.2 863.333 73 916 1" stroke="#EEEEEE" stroke-width="2"/>
<path d="M46 597C93.3333 507.667 244 317.8 468 273C692 228.2 853.333 73 906 1" stroke="#EEEEEE" stroke-width="2"/>
</svg>
