<svg width="436" height="510" viewBox="0 0 436 510" fill="none" xmlns="http://www.w3.org/2000/svg">
<path d="M404.308 342.486C408.587 350.001 407.942 357.204 400.259 367.992C398.454 370.527 397.989 372.8 398.41 376.256L398.451 376.573C398.588 377.598 398.749 378.483 399.088 380.061L399.88 383.654L400.132 384.838C400.652 387.349 400.925 389.103 401.08 391.114L401.118 391.655C401.39 395.817 400.93 399.754 399.539 403.673C396.524 412.172 389.353 419.842 377.089 427.495L376.123 428.092C370.158 431.736 363.803 434.45 356.911 436.44L355.839 436.745C348.18 438.888 342.174 439.782 329.376 441.049L324.781 441.5C311.088 442.883 305.32 444.243 300.707 447.549L300.524 447.682C295.008 451.753 292.003 459.399 291.876 473.463L291.87 474.803C291.75 487.307 286.043 496.985 275.274 502.739C265.494 507.965 251.74 509.882 233.877 508.843C199.871 506.864 149.612 494.013 82.7782 470.324L74.7626 467.483L78.174 459.664C96.0574 418.675 88.3965 370.234 54.4274 313.791L44.5798 297.399C34.7716 281.02 30.8166 274.157 25.9636 265.134L24.2827 261.99L23.3622 260.245C14.8644 244.045 8.98632 230.15 5.16433 216.62C-7.43846 172.005 2.47817 129.289 40.9565 70.0679C88.3478 -2.87101 175.282 -18.3148 299.682 22.5472C365.014 44.6597 397.988 96.1677 397.988 175.229V177.045L397.201 178.68C388.664 196.414 388.664 210.919 396.692 223.196C399.379 227.305 402.61 231.695 407.235 237.615L408.947 239.798L415.67 248.304C422.673 257.203 425.493 261.034 428.533 265.865L429.344 267.17L429.807 267.933C435.423 277.306 437.553 284.863 434.807 291.852C432.958 296.56 429.302 300.068 424.247 302.864C420.752 304.796 416.797 306.311 411.418 307.972L410.211 308.338C408.489 308.854 405.853 309.632 404.416 310.059L403.181 310.431L402.506 310.642C401.194 311.056 400.112 311.426 399.229 311.764L399.59 312.291C399.937 312.791 400.353 313.376 400.85 314.065L401.665 315.187L402.187 315.914C404.804 319.588 406.18 322.039 407.113 325.288C408.634 330.59 407.811 335.936 404.432 340.871L404.23 341.161C404.157 341.264 404.09 341.362 404.028 341.455L403.86 341.716L404.308 342.486ZM382.168 171.325C381.14 101.046 352.159 57.0446 294.706 37.5984C176.438 -1.24908 96.9784 12.8669 54.1815 78.7347C18.0044 134.414 9.14163 172.591 20.3563 212.292C23.908 224.865 29.5164 238.043 37.7885 253.718L39.3439 256.639C44.6816 266.599 48.698 273.541 60.5529 293.296L67.9421 305.588C102.286 362.653 111.783 413.642 95.7926 458.096C157.462 479.584 203.889 491.212 234.79 493.01L236 493.075C250.61 493.812 261.271 492.258 267.857 488.738C273.429 485.761 275.997 481.451 276.079 474.732L276.082 473.816C276.18 454.655 281.155 442.078 291.534 434.639C296.04 431.41 301.322 429.314 307.755 427.907L308.359 427.777C312.28 426.948 316.049 426.439 322.44 425.794L328.275 425.222C339.879 424.065 345.213 423.258 351.724 421.433L352.546 421.199C358.14 419.583 363.206 417.42 367.917 414.542L368.752 414.026C378.224 408.12 383.011 403.008 384.664 398.35C385.779 395.206 385.654 392.544 384.292 386.308L383.732 383.778L383.588 383.106C383.2 381.288 382.997 380.15 382.801 378.696L382.75 378.302C381.87 371.228 383.038 365.078 387.181 359.098L387.652 358.43C388.975 356.541 389.903 354.949 390.483 353.643C390.882 352.743 391.069 352.096 391.12 351.662L391.129 351.572C391.145 351.372 391.134 351.294 390.809 350.721L390.143 349.576L389.881 349.115C386.85 343.706 386.946 338.372 391.156 332.263L391.415 331.892L391.526 331.725C392.517 330.173 392.133 329.001 388.991 324.649L387.27 322.281L386.711 321.499C386.137 320.687 385.806 320.181 385.398 319.514L384.926 318.725C383.564 316.389 382.676 314.148 382.337 311.7C382.244 311.034 382.197 310.363 382.197 309.69C382.197 304.651 385.115 301.242 389.506 298.812C391.743 297.574 394.33 296.585 398.085 295.413L399.477 294.988C400.719 294.617 403.309 293.853 405.137 293.307L406.778 292.813L407.538 292.575C415.4 290.086 419.414 287.823 420.118 286.031C420.14 285.974 420.165 285.815 420.159 285.5C420.137 284.945 420.001 284.206 419.723 283.3C419.091 281.242 417.828 278.645 415.93 275.54L415.343 274.593C412.68 270.341 410.111 266.832 403.743 258.726L396.562 249.637L395.16 247.852L393.952 246.303C389.762 240.909 386.65 236.671 383.954 232.603L383.493 231.902C372.572 215.202 372.191 195.64 381.894 174.116L382.191 173.463L382.168 171.325Z" fill="#EEEEEE"/>
<path fill-rule="evenodd" clip-rule="evenodd" d="M61.1846 309.689C8.40418 221.99 -20.0721 178.506 47.5689 74.4012C92.663 4.99781 175.86 -9.78208 297.16 30.0615C359.115 51.0308 390.092 99.4198 390.092 175.228C380.421 195.319 380.421 212.759 390.092 227.549C404.6 249.732 432.449 276.248 427.462 288.941C422.476 301.635 390.092 301.635 390.092 309.689C390.092 317.744 405.494 325.682 397.793 336.568C390.092 347.455 406.974 344.931 393.837 363.379C380.699 381.827 412.098 396.835 372.02 421.317C331.941 445.798 283.976 415.568 283.976 474.399C283.976 513.619 217.786 509.768 85.4059 462.846C104.445 419.208 96.3716 368.156 61.1846 309.689Z" fill="white"/>
<path fill-rule="evenodd" clip-rule="evenodd" d="M370.069 165.079C360.853 104.701 342.468 70.1404 314.915 61.396C273.586 48.2794 155.211 -1.15234 90.9406 53.7254C48.0934 90.3106 25.1931 137.511 22.2397 195.327C27.6269 217.452 40.9902 243.49 62.3297 273.441C94.3389 318.369 103.631 308.804 103.631 290.275C103.631 271.746 162.395 320.592 179.392 253.955C190.724 209.531 212.553 193.527 244.88 205.944C300.733 211.782 335.587 208.243 349.442 195.327C363.297 182.412 370.173 172.329 370.069 165.079Z" fill="#EEEEEE"/>
<path d="M195.588 246.383C234.382 246.383 265.822 214.808 265.822 175.869C265.822 136.931 234.382 105.356 195.588 105.356C156.794 105.356 125.354 136.931 125.354 175.869C125.354 214.808 156.794 246.383 195.588 246.383ZM195.588 238.946C160.9 238.946 132.781 210.706 132.781 175.869C132.781 141.033 160.9 112.792 195.588 112.792C230.275 112.792 258.395 141.033 258.395 175.869C258.395 210.706 230.275 238.946 195.588 238.946Z" fill="white"/>
<path d="M195.587 238.946C230.275 238.946 258.394 210.705 258.394 175.869C258.394 141.032 230.275 112.792 195.587 112.792C160.9 112.792 132.78 141.032 132.78 175.869C132.78 210.705 160.9 238.946 195.587 238.946Z" fill="#EEEEEE"/>
<path d="M217.48 176.672L195.595 190.425L173.695 176.672L195.595 138.023L217.48 176.672ZM195.588 194.872L173.695 181.275L195.588 213.715L217.48 181.275L195.588 194.872Z" fill="white"/>
<path d="M67.2281 254.146L71.3866 259.646L72.819 256.488C81.7606 236.774 89.6483 234.543 99.1553 248.513L99.5821 249.149C111.642 267.389 125.658 267.081 139.599 248.538L140.911 246.755L137.865 240.259L135.81 243.067C124.11 259.065 114.381 259.738 104.6 245.418L104.135 244.725C91.8214 226.101 78.9234 228.996 68.1396 252.148L67.2281 254.146ZM71.6011 254.497L72.0058 253.62L71.2595 252.633L71.4683 254.511L71.6011 254.497ZM71.6011 254.497L72.5854 254.387L72.0058 253.62L72.8279 251.905C81.8579 233.55 90.4718 231.982 100.249 246.342L100.694 247.005C112.302 264.562 125.636 263.971 139.139 245.508L135.607 245.166L136.131 246.282C124.118 262.17 113.712 262.529 103.508 247.592L103.023 246.869C91.2929 229.127 79.3403 232.119 69.0621 254.78L71.4683 254.511L71.493 254.734L71.6011 254.497ZM136.656 247.401L136.859 245.303L136.131 246.282L136.656 247.401Z" fill="white"/>
<path d="M53.9109 187.176C62.9719 167.199 71.1489 164.975 80.8502 179.36L81.1447 179.801C93.266 198.135 107.278 197.567 121.307 178.386L121.939 177.522L119.151 171.576L117.366 174.017C105.495 190.248 95.4947 190.848 85.548 176.115L85.2466 175.664C72.9111 157.006 60.1058 160.146 49.3188 183.929L48.8745 184.908L52.6655 189.922L53.9109 187.176ZM52.381 183.586L52.5849 185.423L52.809 184.932L53.0329 184.448L52.381 183.586ZM81.9447 177.19L82.2567 177.658C93.7559 195.05 106.86 194.469 120.258 176.15L117.189 175.851L117.778 177.109C105.55 193.351 94.8437 193.674 84.4495 178.279L84.1346 177.808C72.5371 160.266 60.8454 163.192 50.6448 185.682L53.707 185.339L53.0329 184.448C62.5128 164.096 71.6588 161.949 81.9447 177.19ZM118.237 178.087L118.414 176.252L118.096 176.684L117.778 177.109L118.237 178.087Z" fill="white"/>
<path d="M80.4691 117.972C89.5301 97.9947 97.7071 95.7712 107.408 110.156L107.703 110.597C119.824 128.931 133.836 128.363 147.865 109.182L148.497 108.317L145.709 102.372L143.924 104.812C132.053 121.044 122.053 121.644 112.106 106.911L111.805 106.46C99.4693 87.8018 86.664 90.9415 75.8771 114.724L75.4327 115.704L79.2237 120.718L80.4691 117.972ZM78.9393 114.382L79.1432 116.219L79.3672 115.728L79.5912 115.244L78.9393 114.382ZM108.503 107.986L108.815 108.453C120.314 125.846 133.419 125.265 146.817 106.946L143.747 106.647L144.337 107.905C132.108 124.147 121.402 124.469 111.008 109.075L110.693 108.603C99.0953 91.062 87.4036 93.988 77.203 116.478L80.2652 116.135L79.5912 115.244C89.071 94.8922 98.2171 92.7448 108.503 107.986ZM144.795 108.883L144.972 107.048L144.654 107.48L144.337 107.905L144.795 108.883Z" fill="white"/>
<path d="M125.37 65.9964L129.528 71.4964L130.96 68.3383C139.769 48.9183 147.554 46.4635 156.872 59.7485L157.724 60.9995C169.783 79.2399 183.8 78.9319 197.74 60.3886L199.052 58.6054L196.006 52.1089L193.952 54.9177C182.437 70.6615 172.832 71.5634 163.208 57.939L162.276 56.5751C149.963 37.9511 137.065 40.8463 126.281 63.9986L125.37 65.9964ZM129.743 66.347L130.147 65.4708L129.401 64.4836L129.61 66.3618L129.743 66.347ZM130.727 66.2373L130.147 65.4708L130.982 63.7309C140.007 45.3992 148.618 43.839 158.39 58.192L158.836 58.8556C170.443 76.4125 183.778 75.8213 197.281 57.3586L193.749 57.0161L194.272 58.1323C182.26 74.0205 171.853 74.3798 161.65 59.4419L161.164 58.719C149.434 40.9777 137.482 43.969 127.204 66.63L129.61 66.3618L129.635 66.5846L129.743 66.347L130.727 66.2373ZM194.797 59.2517L195 57.1534L194.272 58.1323L194.797 59.2517Z" fill="white"/>
<path d="M221.157 94.1832C230.218 74.2056 238.395 71.9821 248.096 86.3671L248.391 86.8081C260.512 105.142 274.524 104.574 288.553 85.3926L289.185 84.5283L286.397 78.5825L284.612 81.0233C272.741 97.2546 262.741 97.855 252.794 83.1216L252.493 82.6705C240.157 64.0128 227.352 67.1524 216.565 90.9353L216.121 91.915L219.912 96.9289L221.157 94.1832ZM219.627 90.5925L219.831 92.4295L220.055 91.9387L220.279 91.4547L219.627 90.5925ZM249.191 84.1971L249.503 84.6642C261.002 102.057 274.107 101.476 287.504 83.157L284.435 82.8579L285.024 84.1157C272.796 100.358 262.09 100.68 251.696 85.2857L251.381 84.8143C239.783 67.2729 228.091 70.1989 217.891 92.689L220.953 92.3462L220.279 91.4547C229.759 71.1031 238.905 68.9557 249.191 84.1971ZM285.483 85.0936L285.66 83.2589L285.342 83.6909L285.024 84.1157L285.483 85.0936Z" fill="white"/>
<path d="M267.345 152.956L268.777 149.798L269.575 148.079C278.191 129.965 285.89 128.27 295.114 141.823L295.54 142.459C307.77 160.956 322.012 160.379 336.146 141.054L336.869 140.065L333.823 133.568L331.769 136.377C320.068 152.375 310.339 153.048 300.559 138.728L300.093 138.035C287.78 119.411 274.882 122.306 264.098 145.458L263.186 147.456L267.345 152.956ZM267.559 147.807L267.964 146.93L267.218 145.943L267.427 147.821L267.559 147.807ZM268.544 147.697L267.964 146.93L268.786 145.215C277.816 126.86 286.43 125.292 296.207 139.652L296.652 140.315C308.26 157.872 321.595 157.281 335.098 138.818L331.566 138.476L332.089 139.592L330.95 141.058C319.416 155.488 309.346 155.365 299.467 140.902L298.981 140.179C287.251 122.437 275.299 125.429 265.02 148.09L267.427 147.821L267.451 148.044L267.559 147.807L268.544 147.697ZM332.614 140.711L332.817 138.613L332.089 139.592L332.614 140.711Z" fill="white"/>
</svg>
