<svg width="626" height="665" viewBox="0 0 626 665" fill="none" xmlns="http://www.w3.org/2000/svg">
<path d="M1.63281 21.0064C43.6533 21.5417 77.5522 55.7717 77.5522 97.9193V364.591C77.5522 487.794 177.429 587.671 300.633 587.671C423.837 587.671 523.713 487.794 523.713 364.591V97.9194C523.713 55.7718 557.612 21.5417 599.633 21.0064V364.591C599.633 529.724 465.766 663.591 300.633 663.591C135.499 663.591 1.63281 529.724 1.63281 364.591V21.0064Z" fill="white" stroke="#EEEEEE" stroke-width="2"/>
<path d="M135.595 147.477C170.058 148.011 197.83 176.113 197.83 210.703V221.314V223.357L199.443 222.104C227.364 200.418 262.437 187.507 300.529 187.507C391.622 187.507 465.467 261.351 465.468 352.443V353.267C465.024 443.982 391.35 517.382 300.531 517.382C209.438 517.382 135.594 443.538 135.592 352.446L135.592 351.626C135.599 350.156 135.625 348.692 135.67 347.232L135.702 346.201H135.595V147.477ZM197.824 352.443L197.824 353.443H197.832C198.368 409.705 244.142 455.148 300.531 455.148C357.252 455.148 403.235 409.166 403.236 352.446L403.236 351.446H403.228C402.692 295.184 356.918 249.741 300.529 249.741C243.808 249.741 197.826 295.723 197.824 352.443Z" fill="white" stroke="#EEEEEE" stroke-width="2"/>
<path d="M468.63 124.555C468.63 145.119 451.959 161.79 431.395 161.79C410.831 161.79 394.16 145.119 394.16 124.555C394.16 103.991 410.831 87.3202 431.395 87.3202C451.959 87.3202 468.63 103.991 468.63 124.555Z" fill="white" stroke="#EEEEEE" stroke-width="2"/>
<path d="M14.6328 11.0064C56.6533 11.5417 90.5522 45.7717 90.5522 87.9193V354.591C90.5522 477.794 190.429 577.671 313.633 577.671C436.837 577.671 536.713 477.794 536.713 354.591V87.9194C536.713 45.7718 570.612 11.5417 612.633 11.0064V354.591C612.633 519.724 478.766 653.591 313.633 653.591C148.499 653.591 14.6328 519.724 14.6328 354.591V11.0064Z" fill="white" stroke="#EEEEEE" stroke-width="2"/>
<path d="M148.595 137.477C183.058 138.011 210.83 166.113 210.83 200.703V211.314V213.357L212.443 212.104C240.364 190.418 275.437 177.507 313.529 177.507C404.622 177.507 478.467 251.351 478.468 342.443V343.267C478.024 433.982 404.35 507.382 313.531 507.382C222.438 507.382 148.594 433.538 148.592 342.446L148.592 341.626C148.599 340.156 148.625 338.692 148.67 337.232L148.702 336.201H148.595V137.477ZM210.824 342.443L210.824 343.443H210.832C211.368 399.705 257.142 445.148 313.531 445.148C370.252 445.148 416.235 399.166 416.236 342.446L416.236 341.446H416.228C415.692 285.184 369.918 239.741 313.529 239.741C256.808 239.741 210.826 285.723 210.824 342.443Z" fill="white" stroke="#EEEEEE" stroke-width="2"/>
<path d="M481.63 114.555C481.63 135.119 464.959 151.79 444.395 151.79C423.831 151.79 407.16 135.119 407.16 114.555C407.16 93.9908 423.831 77.3202 444.395 77.3202C464.959 77.3202 481.63 93.9908 481.63 114.555Z" fill="white" stroke="#EEEEEE" stroke-width="2"/>
<path d="M26.6328 1.00637C68.6533 1.54175 102.552 35.7717 102.552 77.9193V344.591C102.552 467.794 202.429 567.671 325.633 567.671C448.837 567.671 548.713 467.794 548.713 344.591V77.9194C548.713 35.7718 582.612 1.54174 624.633 1.00637V344.591C624.633 509.724 490.766 643.591 325.633 643.591C160.499 643.591 26.6328 509.724 26.6328 344.591V1.00637Z" fill="white" stroke="#EEEEEE" stroke-width="2"/>
<path d="M160.595 127.477C195.058 128.011 222.83 156.113 222.83 190.703V201.314V203.357L224.443 202.104C252.364 180.418 287.437 167.507 325.529 167.507C416.622 167.507 490.467 241.351 490.468 332.443V333.267C490.024 423.982 416.35 497.382 325.531 497.382C234.438 497.382 160.594 423.538 160.592 332.446L160.592 331.626C160.599 330.156 160.625 328.692 160.67 327.232L160.702 326.201H160.595V127.477ZM222.824 332.443L222.824 333.443H222.832C223.368 389.705 269.142 435.148 325.531 435.148C382.252 435.148 428.235 389.166 428.236 332.446L428.236 331.446H428.228C427.692 275.184 381.918 229.741 325.529 229.741C268.808 229.741 222.826 275.723 222.824 332.443Z" fill="white" stroke="#EEEEEE" stroke-width="2"/>
<path d="M493.63 104.555C493.63 125.119 476.959 141.79 456.395 141.79C435.831 141.79 419.16 125.119 419.16 104.555C419.16 83.9908 435.831 67.3202 456.395 67.3202C476.959 67.3202 493.63 83.9908 493.63 104.555Z" fill="white" stroke="#EEEEEE" stroke-width="2"/>
</svg>
